<mxfile host="app.diagrams.net" agent="Mozilla/5.0 (Windows NT 10.0; Win64; x64) AppleWebKit/537.36 (KHTML, like Gecko) Chrome/134.0.0.0 Safari/537.36 OPR/119.0.0.0" version="27.2.0">
  <diagram name="Seite-1" id="m5eFc901ipslOkic6CTw">
    <mxGraphModel dx="1065" dy="676" grid="1" gridSize="10" guides="1" tooltips="1" connect="1" arrows="1" fold="1" page="1" pageScale="1" pageWidth="827" pageHeight="1169" math="0" shadow="0">
      <root>
        <mxCell id="0" />
        <mxCell id="1" parent="0" />
        <mxCell id="Lash3pSAR_whT-kJBvP--5" style="edgeStyle=orthogonalEdgeStyle;rounded=0;orthogonalLoop=1;jettySize=auto;html=1;exitX=0.5;exitY=1;exitDx=0;exitDy=0;entryX=0.5;entryY=0;entryDx=0;entryDy=0;" edge="1" parent="1" source="Lash3pSAR_whT-kJBvP--1" target="Lash3pSAR_whT-kJBvP--3">
          <mxGeometry relative="1" as="geometry" />
        </mxCell>
        <mxCell id="Lash3pSAR_whT-kJBvP--1" value="" style="ellipse;fillColor=strokeColor;html=1;" vertex="1" parent="1">
          <mxGeometry x="399" y="110" width="30" height="30" as="geometry" />
        </mxCell>
        <mxCell id="Lash3pSAR_whT-kJBvP--2" value="" style="ellipse;html=1;shape=endState;fillColor=strokeColor;" vertex="1" parent="1">
          <mxGeometry x="399" y="510" width="30" height="30" as="geometry" />
        </mxCell>
        <mxCell id="Lash3pSAR_whT-kJBvP--9" style="edgeStyle=orthogonalEdgeStyle;rounded=0;orthogonalLoop=1;jettySize=auto;html=1;" edge="1" parent="1" source="Lash3pSAR_whT-kJBvP--3" target="Lash3pSAR_whT-kJBvP--8">
          <mxGeometry relative="1" as="geometry" />
        </mxCell>
        <mxCell id="Lash3pSAR_whT-kJBvP--3" value="Zeigt Kurse an" style="fontStyle=0;html=1;whiteSpace=wrap;" vertex="1" parent="1">
          <mxGeometry x="354" y="190" width="120" height="40" as="geometry" />
        </mxCell>
        <mxCell id="Lash3pSAR_whT-kJBvP--11" style="edgeStyle=orthogonalEdgeStyle;rounded=0;orthogonalLoop=1;jettySize=auto;html=1;exitX=0;exitY=1;exitDx=0;exitDy=0;entryX=0.5;entryY=0;entryDx=0;entryDy=0;" edge="1" parent="1" source="Lash3pSAR_whT-kJBvP--8" target="Lash3pSAR_whT-kJBvP--10">
          <mxGeometry relative="1" as="geometry" />
        </mxCell>
        <mxCell id="Lash3pSAR_whT-kJBvP--12" value="Ja" style="edgeLabel;html=1;align=center;verticalAlign=middle;resizable=0;points=[];" vertex="1" connectable="0" parent="Lash3pSAR_whT-kJBvP--11">
          <mxGeometry x="0.2553" y="-3" relative="1" as="geometry">
            <mxPoint as="offset" />
          </mxGeometry>
        </mxCell>
        <mxCell id="Lash3pSAR_whT-kJBvP--13" style="edgeStyle=orthogonalEdgeStyle;rounded=0;orthogonalLoop=1;jettySize=auto;html=1;exitX=1;exitY=1;exitDx=0;exitDy=0;entryX=1;entryY=0.5;entryDx=0;entryDy=0;" edge="1" parent="1" source="Lash3pSAR_whT-kJBvP--8" target="Lash3pSAR_whT-kJBvP--2">
          <mxGeometry relative="1" as="geometry">
            <Array as="points">
              <mxPoint x="580" y="340" />
              <mxPoint x="580" y="525" />
            </Array>
          </mxGeometry>
        </mxCell>
        <mxCell id="Lash3pSAR_whT-kJBvP--15" value="Nein" style="edgeLabel;html=1;align=center;verticalAlign=middle;resizable=0;points=[];" vertex="1" connectable="0" parent="Lash3pSAR_whT-kJBvP--13">
          <mxGeometry x="-0.8425" y="1" relative="1" as="geometry">
            <mxPoint as="offset" />
          </mxGeometry>
        </mxCell>
        <mxCell id="Lash3pSAR_whT-kJBvP--8" value="Fragt ob noch ob andere kurse angezeigt werden sollen" style="rhombus;" vertex="1" parent="1">
          <mxGeometry x="343.5" y="280" width="141" height="80" as="geometry" />
        </mxCell>
        <mxCell id="Lash3pSAR_whT-kJBvP--14" style="edgeStyle=orthogonalEdgeStyle;rounded=0;orthogonalLoop=1;jettySize=auto;html=1;exitX=0.5;exitY=1;exitDx=0;exitDy=0;entryX=0;entryY=0.5;entryDx=0;entryDy=0;" edge="1" parent="1" source="Lash3pSAR_whT-kJBvP--10" target="Lash3pSAR_whT-kJBvP--2">
          <mxGeometry relative="1" as="geometry" />
        </mxCell>
        <mxCell id="Lash3pSAR_whT-kJBvP--10" value="Zeige weiter kurse an" style="fontStyle=0;html=1;whiteSpace=wrap;" vertex="1" parent="1">
          <mxGeometry x="170" y="390" width="120" height="40" as="geometry" />
        </mxCell>
      </root>
    </mxGraphModel>
  </diagram>
</mxfile>
